<svg xmlns="http://www.w3.org/2000/svg" id="LOGO" viewBox="0 0 141.73 141.73"><defs><style>      .cls-1 {        fill: #ffe600;      }      .cls-1, .cls-2, .cls-3 {        stroke-width: 0px;      }      .cls-2 {        fill: #000;      }      .cls-3 {        fill: #fff;      }    </style></defs><path class="cls-1" d="M83.23.06h0c-.92,0-1.87.04-2.8.13-5.43.49-10.97,2.39-16.44,5.63-1.67.99-3.27,2.07-4.76,3.21l-.13.09c-1.28.86-2.86,1.94-2.82,3.97,0,.09.27,11.5.5,20.97-2.68-3.25-5.6-6.4-8.98-8.77-2.43-1.7-5.02-2.55-7.47-3.2-1.43-.39-3-.58-4.65-.58-2.1,0-4.32.31-6.59.91-2.07.55-4.08,1.49-5.97,2.78-2.69,1.84-5.11,4.32-7.62,7.82-2.5,3.47-4.35,7.04-5.52,10.62-1.04,3.18-1.64,6.69-1.77,10.45-.05,1.32-.05,2.72,0,4.53.01.36.07,1.34.12,2.25.04.74.09,1.43.09,1.65v1.36l.96.93s2.68,2.71,5.28,5.32c-1.57.67-3.07,1.41-4.28,2.21C1.97,77.82.45,85.67.04,91.1c-.3,3.98.94,7.82,2.03,10.34,2.44,5.63,7.18,10.95,14.11,15.8,2.34,1.64,4.83,3.04,7.41,4.17,5.1,2.23,6.07,2.23,6.44,2.23h1.28l.19-.17c.04.12.08.24.12.36.66,1.93,1.76,3.83,3.46,5.97,5.34,6.69,11.68,10.71,18.34,11.63,1.15.16,2.34.24,3.53.24,5.11,0,10.6-1.45,16.32-4.3,2.2-1.1,4.43-2.41,6.63-3.9.69-.46,1.36-.94,2.03-1.43l.07-.04c.99-.62,2.48-1.55,2.45-3.52,0-.04-.14-10.59-.27-19.41,1.51,2.24,3.21,4.79,5.02,7.5l.21.32.28.26s.97.92,5.85,5.86l1.36,1.38,1.87-.51c.44-.12,10.95-3.04,17.87-8.24l.19-.14c3.28-2.47,6.68-5.02,9.42-8.61,4.63-6.07,6.61-13.81,5.16-20.2-1.29-5.68-5.05-9.91-9.04-12.92,4.42-.78,9.15-1.63,10.81-1.94l1.5-.28.76-1.32c3-5.2,5.49-13.88,5.96-17.82.52-4.42.76-8.22-1.25-13.53-1.96-5.18-8-11.48-12.48-14.35l-.06-.04-.06-.03c-3.29-1.93-6.78-2.9-10.36-2.9-2.71,0-5.16.56-7.23,1.28-.06-1.66-.3-3.24-.72-4.4-1.31-4.09-3.99-7.89-7.94-11.29-2.93-2.52-5.89-4.35-8.79-5.45-2.83-1.07-5.94-1.61-9.24-1.61h0Z"></path><path class="cls-2" d="M137.02,40.03c-1.71-4.53-7.4-10.31-11.17-12.73-3.08-1.8-6.02-2.45-8.68-2.45-4.98,0-8.99,2.26-11.19,3.41.86-2.21.86-6.79.1-8.75-1.23-3.91-3.9-7.22-6.97-9.86-2.31-1.99-4.95-3.78-7.81-4.87-2.57-.97-5.32-1.4-8.07-1.4-.84,0-1.67.04-2.51.11-5.34.48-10.47,2.47-15.05,5.18-1.55.92-3.05,1.92-4.47,3.02-.2.15-1.61,1.04-1.61,1.32,0,0,.55,23.95.77,31.38-.01-.43-.86-1.3-1.09-1.63-.95-1.37-1.94-2.71-2.98-4.02-3.03-3.82-6.39-7.93-10.4-10.74-1.95-1.37-4.11-2.1-6.43-2.72-1.21-.33-2.5-.47-3.79-.47-1.95,0-3.93.32-5.74.8-1.77.47-3.44,1.28-4.95,2.31-2.71,1.85-4.9,4.37-6.8,7.01-2.14,2.98-3.92,6.22-5.06,9.71-1.01,3.08-1.49,6.3-1.61,9.53-.05,1.44-.03,2.88,0,4.32.02.68.21,3.62.21,3.96,0,0,2.98,3.01,5.69,5.73l8.66,1.69s-9.46,2.29-13.89,5.21c-6.94,4.53-8.45,10.87-8.85,16.25-.22,2.92.61,6.11,1.77,8.77,2.57,5.94,7.76,10.76,12.97,14.41,2.15,1.51,4.43,2.8,6.83,3.85.89.39,4.69,1.96,5.11,1.96.02,0,.03,0,.03,0,0,0,2.72-2.47,4.23-3.77-.45,1.91-.1,4.68.45,6.19.62,1.84,1.73,3.49,2.93,5,4.09,5.13,9.52,9.5,16.19,10.41,1.03.14,2.06.21,3.08.21,5.15,0,10.25-1.67,14.83-3.95,2.16-1.08,4.25-2.32,6.25-3.68.68-.46,1.35-.93,2.01-1.41.12-.08,1.09-.65,1.08-.79,0,0-.35-26.06-.45-30.54,0,0,4.98,7.29,11.27,16.75,0,0,.86.81,5.94,5.94,0,0,10.26-2.82,16.75-7.7,3.27-2.46,6.45-4.82,8.96-8.11,3.64-4.77,5.92-11.49,4.56-17.45-1.44-6.36-6.88-10.97-12.39-13.91-.59-.32-1.19-.62-1.8-.9-.21-.1-.84-.52-1.11-.52-.01,0-.03,0-.04,0,0,0,16.25-2.87,19.72-3.52,2.82-4.88,5.13-13.13,5.53-16.55.5-4.28.65-7.45-1.06-11.97ZM122.9,57.66c-1.53.26-38.71,6.72-50.18,8.71,2.16.61,16.4,4.65,16.51,4.7.11.05,16.81,4.75,20.48,5.92,4.43,1.41,6.22,4.79,6.59,5.61,2.05,4.43-.9,10.11-2.61,12.46-3.11,4.27-6.38,6.31-9.48,8.28-3.25,2.06-9.84,4.56-9.84,4.56l-25.35-37.78-.03-.07c.14,11.95.57,48.39.57,49.72-.15.13-5,3.64-11.3,5.81-1.89.75-6.3,1.02-7.61,1.02-3.46-.13-6.5-.96-8.49-2.77-3.3-3.07-2.15-7.5-1.46-9.9.92-3.11,2.21-5.97,2.69-6.87,0,0,2.53-4.76,2.71-5.1l2.69-4.68,15.56-27.45-41.28,38.06s-8.74-2.98-12.95-11.03c-.6-1.41-2.78-7.48,2.38-14.46,1.04-1.37,4.93-4.43,14.32-6.74,3.79-1.03,32.74-8.57,35.2-9.21l-44.66-8.8s-.37-5.67,2.31-13.62c1.71-4.66,6.24-11.4,11.87-12.81,3.62-1.01,8.28-1.07,12.34,3.69,3.39,3.97,17.96,21.82,22.71,27.63l-1.11-46.38s9.16-6.51,16.57-6.84c4.73-.3,12.74.94,13.01,7.58.13,2.01.2,4.06-3.42,11.57-1.8,3.66-17.74,30.18-20.12,34.14,5.67-4.53,16.83-13.84,20.09-16.46,3.76-3.02,9.76-7.95,9.76-7.95,1.91-1.61,6.67-5,10.9-6.54,3.05-1.01,13.45-2.78,14.46,7.51,1.11,10.33-3.82,18.48-3.82,18.48Z"></path><path class="cls-3" d="M112.27,31.66c-4.23,1.54-8.99,4.93-10.9,6.54,0,0-6,4.93-9.76,7.95-3.26,2.62-14.42,11.93-20.09,16.46,2.38-3.95,18.32-30.47,20.12-34.14,3.62-7.51,3.56-9.56,3.42-11.57-.27-6.64-8.28-7.88-13.01-7.58-7.41.34-16.57,6.84-16.57,6.84l1.11,46.38c-4.75-5.81-19.32-23.66-22.71-27.63-4.06-4.76-8.72-4.7-12.34-3.69-5.63,1.41-10.16,8.15-11.87,12.81-2.68,7.95-2.31,13.62-2.31,13.62l44.66,8.8c-2.46.64-31.41,8.18-35.2,9.21-9.39,2.31-13.28,5.37-14.32,6.74-5.17,6.98-2.98,13.05-2.38,14.46,4.21,8.06,12.95,11.03,12.95,11.03l41.28-38.06-15.56,27.45-2.69,4.68c-.19.34-2.71,5.1-2.71,5.1-.48.9-1.77,3.76-2.69,6.87-.68,2.4-1.83,6.83,1.46,9.9,1.98,1.81,5.03,2.64,8.49,2.77,1.31,0,5.72-.28,7.61-1.02,6.3-2.17,11.15-5.68,11.3-5.81,0-1.33-.43-37.77-.57-49.72l.03.07,25.35,37.78s6.59-2.5,9.84-4.56c3.11-1.97,6.38-4.02,9.48-8.28,1.71-2.35,4.66-8.03,2.61-12.46-.38-.81-2.16-4.19-6.59-5.61-3.67-1.17-20.37-5.87-20.48-5.92-.1-.05-14.35-4.09-16.51-4.7,11.47-1.99,48.65-8.45,50.18-8.71,0,0,4.93-8.15,3.82-18.48-1.01-10.3-11.4-8.52-14.46-7.51Z"></path></svg>